<svg width="1330" height="662" viewBox="0 0 1330 662" fill="none" xmlns="http://www.w3.org/2000/svg">
<mask id="mask0_453_5248" style="mask-type:alpha" maskUnits="userSpaceOnUse" x="0" y="0" width="1330" height="662">
<path fill-rule="evenodd" clip-rule="evenodd" d="M1300 662H30C13.431 662 0 648.568 0 632V261V92V30C0 13.432 13.431 0 30 0H440.674C453.588 0 468.234 5.171 482.121 17.627C482.537 18.082 482.961 18.539 483.402 19L488.669 24.121C490.357 25.963 492.027 27.919 493.674 30L495.86 31.112L496.773 32C512.639 48.568 538.932 62 555.5 62H556.551H714.5H1300C1316.57 62 1330 75.432 1330 92V632C1330 648.568 1316.57 662 1300 662Z" fill="#B9D4E7"/>
</mask>
<g mask="url(#mask0_453_5248)">
<path fill-rule="evenodd" clip-rule="evenodd" d="M1300 662H30C13.431 662 0 648.568 0 632V261V92V30C0 13.432 13.431 0 30 0H440.674C453.588 0 468.234 5.171 482.121 17.627C482.537 18.082 482.961 18.539 483.402 19L488.669 24.121C490.357 25.963 492.027 27.919 493.674 30L495.86 31.112L496.773 32C512.639 48.568 538.932 62 555.5 62H556.551H714.5H1300C1316.57 62 1330 75.432 1330 92V632C1330 648.568 1316.57 662 1300 662Z" fill="#B9D4E7"/>
</g>
</svg>
