<svg width="500" height="505" viewBox="0 0 500 505" fill="none" xmlns="http://www.w3.org/2000/svg">
<path fill-rule="evenodd" clip-rule="evenodd" d="M419.595 504.054H450.886C474.28 504.054 500 485.089 500 461.697V89.8649C500 66.4722 474.28 47.5074 450.886 47.5074H417.241C416.592 47.3098 416.023 47.2075 415.541 47.2075H300.649H299.849C287.235 47.2075 267.216 36.9802 255.136 24.3652L254.441 23.689L252.776 22.8423C251.522 21.2578 250.251 19.7685 248.966 18.366L244.956 14.4668C244.62 14.1158 244.297 13.7678 243.98 13.4214C233.407 3.93726 222.256 0 212.424 0H168.249H55.4054H42.3575C18.9634 0 0 18.9649 0 42.3575V60.1351V129.896V368.51V461.697C0 485.089 18.9634 504.054 42.3575 504.054H101.351H419.595Z" fill="#8B7FC5"/>
</svg>
