<svg width="879" height="662" viewBox="0 0 879 662" fill="none" xmlns="http://www.w3.org/2000/svg">
<path fill-rule="evenodd" clip-rule="evenodd" d="M849 662H30C13.431 662 0 648.568 0 632V261V92V30C0 13.432 13.431 0 30 0H279C291.914 0 306.56 5.171 320.447 17.627C320.863 18.082 321.287 18.539 321.728 19L326.995 24.121C328.683 25.963 330.353 27.919 332 30L334.186 31.112L335.099 32C350.965 48.568 377.258 62 393.826 62H394.877H552.826H849C865.569 62 879 75.432 879 92V632C879 648.568 865.569 662 849 662Z" fill="#7CBFCD"/>
</svg>
