<svg width="49" height="63" viewBox="0 0 49 63" fill="none" xmlns="http://www.w3.org/2000/svg">
<g clip-path="url(#clip0_318_5033)">
<path d="M33.0217 63H10.6522C4.77927 63 0 58.289 0 52.5V10.5C0 4.711 4.77927 0 10.6522 0H38.3478C44.2207 0 49 4.711 49 10.5V47.25C49 47.81 48.7728 48.342 48.3751 48.734L34.5272 62.384C34.1296 62.776 33.5899 63 33.0217 63ZM10.6522 4.2C7.12986 4.2 4.26087 7.028 4.26087 10.5V52.5C4.26087 55.972 7.12986 58.8 10.6522 58.8H32.1412L44.7391 46.382V10.5C44.7391 7.028 41.8701 4.2 38.3478 4.2H10.6522Z" fill="#C7D97E"/>
<path d="M35.1531 14.3504H11.7183C10.5395 14.3504 9.58789 13.4124 9.58789 12.2504C9.58789 11.0884 10.5395 10.1504 11.7183 10.1504H35.1531C36.3319 10.1504 37.2835 11.0884 37.2835 12.2504C37.2835 13.4124 36.3319 14.3504 35.1531 14.3504Z" fill="#C7D97E"/>
<path d="M28.0517 22.7508H11.7183C10.5395 22.7508 9.58789 21.8128 9.58789 20.6508C9.58789 19.4888 10.5395 18.5508 11.7183 18.5508H28.0517C29.2305 18.5508 30.1821 19.4888 30.1821 20.6508C30.1821 21.8128 29.2305 22.7508 28.0517 22.7508Z" fill="#C7D97E"/>
<path d="M33.0227 31.1492H11.7183C10.5395 31.1492 9.58789 30.2112 9.58789 29.0492C9.58789 27.8872 10.5395 26.9492 11.7183 26.9492H33.0227C34.2015 26.9492 35.1531 27.8872 35.1531 29.0492C35.1531 30.2112 34.2015 31.1492 33.0227 31.1492Z" fill="#C7D97E"/>
<path d="M27.3415 39.5496H11.7183C10.5395 39.5496 9.58789 38.6116 9.58789 37.4496C9.58789 36.2876 10.5395 35.3496 11.7183 35.3496H27.3415C28.5204 35.3496 29.4719 36.2876 29.4719 37.4496C29.4719 38.6116 28.5204 39.5496 27.3415 39.5496Z" fill="#C7D97E"/>
<path d="M23.0806 47.95H11.7183C10.5395 47.95 9.58789 47.012 9.58789 45.85C9.58789 44.688 10.5395 43.75 11.7183 43.75H23.0806C24.2595 43.75 25.2111 44.688 25.2111 45.85C25.2111 47.012 24.2595 47.95 23.0806 47.95Z" fill="#C7D97E"/>
<path d="M33.0211 62.6504C31.8422 62.6504 30.8906 61.7124 30.8906 60.5504V47.2504C30.8906 46.0884 31.8422 45.1504 33.0211 45.1504H45.5125C46.6913 45.1504 47.6429 46.0884 47.6429 47.2504C47.6429 48.4124 46.6913 49.3504 45.5125 49.3504H35.1515V60.5504C35.1515 61.7124 34.1999 62.6504 33.0211 62.6504Z" fill="#C7D97E"/>
</g>
<defs>
<clipPath id="clip0_318_5033">
<rect width="49" height="63" fill="white"/>
</clipPath>
</defs>
</svg>
