<svg width="370" height="486" viewBox="0 0 370 486" fill="none" xmlns="http://www.w3.org/2000/svg">
<path fill-rule="evenodd" clip-rule="evenodd" d="M31.3445 485.845H333.655C350.967 485.845 370 471.811 370 454.5V66.5C370 49.1895 350.967 35.1555 333.655 35.1555H308.758C308.278 35.0093 307.857 34.9335 307.5 34.9335H222.481H221.888C212.554 34.9335 197.74 27.3654 188.801 18.0302L188.286 17.5299L187.055 16.9033C186.127 15.7308 185.186 14.6287 184.235 13.5908L181.267 10.7054C181.019 10.4457 180.78 10.1882 180.545 9.93183C172.721 2.91357 164.469 0 157.193 0H124.504H41H31.3445C14.0329 0 0 14.034 0 31.3445V44.5V96.1232V272.697V454.5C0 471.811 14.0329 485.845 31.3445 485.845Z" fill="#1486BC"/>
</svg>
