<svg width="1330" height="740" viewBox="0 0 1330 740" fill="none" xmlns="http://www.w3.org/2000/svg">
<path fill-rule="evenodd" clip-rule="evenodd" d="M1300 740H30C13.431 740 0 726.577 0 710.02V260.824V91.9379V29.9797C0 13.4229 13.431 0 30 0H440.674C453.588 0 468.234 5.16751 482.121 17.6151C482.537 18.0698 482.961 18.5265 483.402 18.9872L488.669 24.1047C490.357 25.9455 492.027 27.9001 493.674 29.9797L495.86 31.091L496.773 31.9784C512.639 48.5352 538.932 61.9581 555.5 61.9581H556.551H714.5H1300C1316.57 61.9581 1330 75.3811 1330 91.9379V710.02C1330 726.577 1316.57 740 1300 740Z" fill="#1486BC"/>
</svg>
