<svg width="637" height="80" viewBox="0 0 637 80" fill="none" xmlns="http://www.w3.org/2000/svg">
<g filter="url(#filter0_d_737_214)">
<path fill-rule="evenodd" clip-rule="evenodd" d="M597 70H487C477.178 70 468.459 65.28 462.987 57.985C457.136 50.813 450.227 57.768 450.006 57.994C444.533 65.284 435.817 70 426 70H40C23.431 70 10 56.569 10 40C10 23.431 23.431 10 40 10H426C435.818 10 444.534 14.716 450.007 22.007C450.243 22.248 457.141 29.177 462.984 22.019C468.457 14.722 477.177 10 487 10H597C613.569 10 627 23.431 627 40C627 56.569 613.569 70 597 70Z" fill="black"/>
</g>
<rect x="465" y="16" width="156" height="48" rx="24" fill="#FF772D"/>
<defs>
<filter id="filter0_d_737_214" x="0" y="0" width="637" height="80" filterUnits="userSpaceOnUse" color-interpolation-filters="sRGB">
<feFlood flood-opacity="0" result="BackgroundImageFix"/>
<feColorMatrix in="SourceAlpha" type="matrix" values="0 0 0 0 0 0 0 0 0 0 0 0 0 0 0 0 0 0 127 0" result="hardAlpha"/>
<feOffset/>
<feGaussianBlur stdDeviation="5"/>
<feComposite in2="hardAlpha" operator="out"/>
<feColorMatrix type="matrix" values="0 0 0 0 0 0 0 0 0 0 0 0 0 0 0 0 0 0 0.25 0"/>
<feBlend mode="normal" in2="BackgroundImageFix" result="effect1_dropShadow_737_214"/>
<feBlend mode="normal" in="SourceGraphic" in2="effect1_dropShadow_737_214" result="shape"/>
</filter>
</defs>
</svg>
