<svg width="1317" height="1026" viewBox="0 0 1317 1026" fill="none" xmlns="http://www.w3.org/2000/svg">
<path fill-rule="evenodd" clip-rule="evenodd" d="M433.359 84H1287C1303.57 84 1317 97.4314 1317 114V996C1317 1012.57 1303.57 1026 1287 1026H30C13.4314 1026 0 1012.57 0 996V961V261V114V92V30C0 13.4319 13.4309 0 30 0H323.674C336.588 0 351.234 5.1709 365.121 17.627C365.537 18.082 365.961 18.5391 366.402 19L371.669 24.1211C373.357 25.9629 375.027 27.9189 376.674 30L378.86 31.1121L379.773 32C383.518 35.9102 387.843 40.927 392.484 46.3101C405.578 61.4966 421.185 79.5986 433.359 84Z" fill="#E3F079"/>
</svg>
