<svg width="367" height="793" viewBox="0 0 367 793" fill="none" xmlns="http://www.w3.org/2000/svg">
<path fill-rule="evenodd" clip-rule="evenodd" d="M337 793H30C13.431 793 0 779.568 0 763L0 261V74V30C0 13.432 13.431 0 30 0H185.348C198.262 0 207.133 5.171 221.02 17.627C221.436 18.082 221.86 18.539 222.301 19L227.568 24.121C229.256 25.963 230.926 27.919 232.573 30L234.759 31.112L235.672 32C251.538 48.568 255.606 52 272.174 52H273.225H276.5H337C353.569 52 367 65.432 367 82V763C367 779.568 353.569 793 337 793Z" fill="#EC8268"/>
</svg>
