<svg width="1317" height="1026" viewBox="0 0 1317 1026" fill="none" xmlns="http://www.w3.org/2000/svg">
<path fill-rule="evenodd" clip-rule="evenodd" d="M844.359 84H1287C1303.57 84 1317 97.4314 1317 114V996C1317 1012.57 1303.57 1026 1287 1026H30C13.4314 1026 0 1012.57 0 996V114C0 97.4314 13.4314 84 30 84H411V30C411 13.4319 424.431 0 441 0H734.674C747.588 0 762.234 5.1709 776.121 17.627C776.317 17.8413 776.515 18.0562 776.715 18.2715C776.94 18.5134 777.169 18.7561 777.402 19L782.669 24.1211C784.357 25.9629 786.027 27.9189 787.674 30L789.86 31.1121L790.773 32C794.518 35.9104 798.843 40.9272 803.484 46.3103C816.578 61.4966 832.185 79.5986 844.359 84Z" fill="#EC8268"/>
</svg>
