<svg width="60" height="69" viewBox="0 0 60 69" fill="none" xmlns="http://www.w3.org/2000/svg">
<path d="M25.7177 50.0898L25.7179 50.0896C25.7256 50.0835 25.7331 50.0777 25.7406 50.0719C27.0789 50.7581 28.5388 51.1028 29.9999 51.1028C31.4606 51.1028 32.9209 50.7578 34.2591 50.0717C34.2668 50.0776 34.2744 50.0836 34.2824 50.0899L34.2828 50.0903L54.345 65.9728H5.65496L25.7177 50.0898ZM58.6795 29.0276L53.3355 24.7968V3.25313C53.3355 1.92787 52.2576 0.85 50.9323 0.85H9.06767C7.74241 0.85 6.66454 1.92787 6.66454 3.25313V24.7968L1.32048 29.0276C1.0233 29.2628 0.85 29.621 0.85 30V64.8872C0.85 66.8537 2.44958 68.4533 4.41604 68.4533H55.584C57.5504 68.4533 59.15 66.8537 59.15 64.8872V30C59.15 29.621 58.9767 29.2628 58.6795 29.0277C58.6795 29.0277 58.6795 29.0276 58.6795 29.0276ZM56.6695 64.6494L36.4048 48.6065L56.6695 32.5636V64.6494ZM23.5952 48.6065L3.33045 64.6494V32.5636L23.5952 48.6065ZM34.2829 47.1228C31.7609 49.1193 28.2391 49.1195 25.7171 47.1228L21.8133 44.0322H38.1867L34.2829 47.1228ZM53.3355 27.9604L55.9117 30L53.3355 32.0395V27.9604ZM9.14499 3.33045H50.855V34.0031L41.3199 41.5518H18.6801L9.14499 34.0031V25.4203V25.4203V25.4203V25.4203V25.4203V25.4202V25.4202V25.4202V25.4202V25.4202V25.4202V25.4201V25.4201V25.4201V25.4201V25.4201V25.4201V25.4201V25.42V25.42V25.42V25.42V25.42V25.42V25.4199V25.4199V25.4199V25.4199V25.4199V25.4199V25.4198V25.4198V25.4198V25.4198V25.4198V25.4198V25.4197V25.4197V25.4197V25.4197V25.4197V25.4197V25.4197V25.4196V25.4196V25.4196V25.4196V25.4196V25.4196V25.4195V25.4195V25.4195V25.4195V25.4195V25.4195V25.4194V25.4194V25.4194V25.4194V25.4194V25.4194V25.4193V25.4193V25.4193V25.4193V25.4193V25.4193V25.4193V25.4192V25.4192V25.4192V25.4192V25.4192V25.4192V25.4191V25.4191V25.4191V25.4191V25.4191V25.4191V25.419V25.419V25.419V25.419V25.419V25.419V25.4189V25.4189V25.4189V25.4189V25.4189V25.4189V25.4188V25.4188V25.4188V25.4188V25.4188V25.4188V25.4188V25.4187V25.4187V25.4187V25.4187V25.4187V25.4187V25.4186V25.4186V25.4186V25.4186V25.4186V25.4186V25.4185V25.4185V25.4185V25.4185V25.4185V25.4185V25.4185V25.4184V25.4184V25.4184V25.4184V25.4184V25.4184V25.4183V25.4183V25.4183V25.4183V25.4183V25.4183V25.4182V25.4182V25.4182V25.4182V25.4182V25.4182V25.4182V25.4181V25.4181V25.4181V25.4181V25.4181V25.4181V25.418V25.418V25.418V25.418V25.418V25.418V25.4179V25.4179V25.4179V25.4179V25.4179V25.4179V25.4179V25.4178V25.4178V25.4178V25.4178V25.4178V25.4178V25.4177V25.4177V25.4177V25.4177V25.4177V25.4177V25.4176V25.4176V25.4176V25.4176V25.4176V25.4176V25.4176V25.4175V25.4175V25.4175V25.4175V25.4175V25.4175V25.4174V25.4174V25.4174V25.4174V25.4174V25.4174V25.4173V25.4173V25.4173V25.4173V25.4173V25.4173V25.4172V25.4172V25.4172V25.4172V25.4172V25.4172V25.4172V25.4171V25.4171V25.4171V25.4171V25.4171V25.4171V25.417V25.417V25.417V25.417V25.417V25.417V25.417V25.4169V25.4169V25.4169V25.4169V25.4169V25.4169V25.4168V25.4168V25.4168V25.4168V25.4168V25.4168V25.4167V25.4167V25.4167V25.4167V25.4167V25.4167V25.4167V25.4166V25.4166V25.4166V25.4166V25.4166V25.4166V25.4165V25.4165V25.4165V25.4165V25.4165V25.4165V25.4164V25.4164V25.4164V25.4164V25.4164V25.4164V25.4164V25.4163V25.4163V25.4163V25.4163V25.4163V25.4163V25.4162V25.4162V25.4162V25.4162V25.4162V25.4162V25.4161V25.4161V25.4161V25.4161V25.4161V25.4161V25.4161V25.416V25.416V25.416V25.416V25.416V25.416V25.4159V25.4159V25.4159V25.4159V25.4159V25.4159V25.4158V25.4158V25.4158V25.4158V25.4158V25.4158V25.4158V25.4157V25.4157V25.4157V25.4157V25.4157V25.4157V25.4156V25.4156V25.4156V25.4156V25.4156V25.4156V25.4155V25.4155V25.4155V25.4155V25.4155V25.4155V25.4155V25.4154V25.4154V25.4154V25.4154V25.4154V25.4154V25.4153V25.4153V25.4153V25.4153V25.4153V25.4153V25.4152V25.4152V25.4152V25.4152V25.4152V25.4152V25.4152V25.4151V25.4151V25.4151V25.4151V25.4151V25.4151V25.415V25.415V25.415V25.415V25.415V25.415V25.4149V25.4149V25.4149V25.4149V25.4149V25.4149V25.4149V25.4148V25.4148V25.4148V25.4148V25.4148V25.4148V25.4147V25.4147V25.4147V25.4147V25.4147V25.4147V25.4146V25.4146V25.4146V25.4146V25.4146V25.4146V25.4146V25.4145V25.4145V25.4145V25.4145V25.4145V25.4145V25.4144V25.4144V25.4144V25.4144V25.4144V25.4144V25.4143V25.4143V25.4143V25.4143V25.4143V25.4143V25.4143V25.4142V25.4142V25.4142V25.4142V25.4142V25.4142V25.4141V25.4141V25.4141V25.4141V25.4141V25.4141V25.414V25.414V25.414V25.414V25.414V25.414V25.4139V25.4139V25.4139V25.4139V25.4139V25.4139V25.4139V25.4138V25.4138V25.4138V25.4138V25.4138V25.4138V25.4137V25.4137V25.4137V25.4137V25.4137V25.4137V25.4136V25.4136V25.4136V25.4136V25.4136V25.4136V25.4136V25.4135V25.4135V25.4135V25.4135V25.4135V25.4135V25.4134V25.4134V25.4134V25.4134V25.4134V25.4134V25.4133V25.4133V25.4133V25.4133V25.4133V25.4133V25.4132V25.4132V25.4132V25.4132V25.4132V25.4132V25.4132V25.4131V25.4131V25.4131V25.4131V25.4131V25.4131V25.413V25.413V25.413V25.413V25.413V25.413V25.4129V25.4129V25.4129V25.4129V25.4129V25.4129V25.4128V25.4128V25.4128V25.4128V25.4128V25.4128V25.4128V25.4127V25.4127V25.4127V25.4127V25.4127V25.4127V25.4126V25.4126V25.4126V25.4126V25.4126V25.4126V25.4125V25.4125V25.4125V25.4125V25.4125V25.4125V25.4124V25.4124V25.4124V25.4124V25.4124V25.4124V25.4123V25.4123V25.4123V25.4123V25.4123V25.4123V25.4123V25.4122V25.4122V25.4122V25.4122V3.33045ZM6.66454 27.9604V32.0395L4.08831 30L6.66454 27.9604Z" fill="white" stroke="white" stroke-width="0.3"/>
<path d="M16.0451 11.4706H24.1855C24.8704 11.4706 25.4257 10.9153 25.4257 10.2304C25.4257 9.54542 24.8704 8.99014 24.1855 8.99014H16.0451C15.3602 8.99014 14.8049 9.54542 14.8049 10.2304C14.8049 10.9153 15.3602 11.4706 16.0451 11.4706Z" fill="white" stroke="white" stroke-width="0.3"/>
<path d="M16.0451 17.2853H28.8371C29.522 17.2853 30.0773 16.73 30.0773 16.0451C30.0773 15.3601 29.522 14.8048 28.8371 14.8048H16.0451C15.3602 14.8048 14.8049 15.3601 14.8049 16.0451C14.8049 16.73 15.3602 17.2853 16.0451 17.2853Z" fill="white" stroke="white" stroke-width="0.3"/>
<path d="M21.7823 25.3484C21.7823 26.0333 22.3376 26.5886 23.0225 26.5886H36.9774C37.6624 26.5886 38.2176 26.0333 38.2176 25.3484C38.2176 24.6635 37.6624 24.1082 36.9774 24.1082H23.0225C22.3376 24.1082 21.7823 24.6635 21.7823 25.3484Z" fill="white" stroke="white" stroke-width="0.3"/>
<path d="M16.0451 32.4033H43.9549C44.6398 32.4033 45.1951 31.848 45.1951 31.1631C45.1951 30.4782 44.6398 29.9229 43.9549 29.9229H16.0451C15.3602 29.9229 14.8049 30.4782 14.8049 31.1631C14.8049 31.848 15.3602 32.4033 16.0451 32.4033Z" fill="white" stroke="white" stroke-width="0.3"/>
<path d="M16.0451 38.2174H43.9549C44.6398 38.2174 45.1951 37.6621 45.1951 36.9772C45.1951 36.2923 44.6398 35.737 43.9549 35.737H16.0451C15.3602 35.737 14.8049 36.2923 14.8049 36.9772C14.8049 37.6621 15.3602 38.2174 16.0451 38.2174Z" fill="white" stroke="white" stroke-width="0.3"/>
</svg>
