<svg width="72" height="72" viewBox="0 0 72 72" fill="none" xmlns="http://www.w3.org/2000/svg">
<path d="M16.5034 48.7092C16.502 50.6954 16.8919 52.6624 17.651 54.4978C18.4101 56.3332 19.5234 58.001 20.9273 59.4059C22.3312 60.8109 23.9983 61.9254 25.8331 62.6858C27.6679 63.4462 29.6346 63.8376 31.6208 63.8376L29.3515 60.0555" stroke="white" stroke-width="3" stroke-linecap="round" stroke-linejoin="round"/>
<path d="M28.0471 26.6522L20.3076 11.2389L12.568 26.6522" stroke="white" stroke-width="3" stroke-linecap="round" stroke-linejoin="round"/>
<path d="M13.9822 23.9342H26.7098" stroke="white" stroke-width="3" stroke-linecap="round" stroke-linejoin="round"/>
<path d="M31.1604 35.1815C27.828 37.6104 23.7747 38.8461 19.654 38.6894C15.5334 38.5327 11.5856 36.9928 8.44728 34.3179C5.30893 31.643 3.16296 27.989 2.35538 23.9453C1.54781 19.9015 2.12571 15.7036 3.9959 12.0284C5.86609 8.35331 8.91956 5.41515 12.6639 3.68776C16.4083 1.96037 20.6254 1.54442 24.6351 2.50699C28.6448 3.46956 32.2134 5.75454 34.7656 8.99348C37.3177 12.2324 38.7047 16.2365 38.7027 20.3602" stroke="white" stroke-width="3" stroke-linecap="round" stroke-linejoin="round"/>
<path d="M70.2747 61.8314C70.4172 67.6525 67.6108 70.4589 61.8006 70.3164H50.7613C45.1156 70.4589 42.3092 67.6525 42.3092 61.8314V50.8688C42.3092 45.1902 45.1156 42.3838 50.7942 42.3838H61.7568C67.5779 42.3838 70.3843 45.1902 70.2418 50.8688" stroke="white" stroke-width="3" stroke-linecap="round" stroke-linejoin="round"/>
<path d="M62.0201 53.1823H50.608" stroke="white" stroke-width="3" stroke-linecap="round" stroke-linejoin="round"/>
<path d="M56.2428 51.2747V53.1821" stroke="white" stroke-width="3" stroke-linecap="round" stroke-linejoin="round"/>
<path d="M59.1587 53.1494C59.1969 55.4661 58.3168 57.7039 56.7105 59.3738C55.1042 61.0437 52.9024 62.0102 50.5859 62.062" stroke="white" stroke-width="3" stroke-linecap="round" stroke-linejoin="round"/>
<path d="M62.0202 62.0615C60.9924 62.0274 59.9869 61.7527 59.0845 61.2596C58.182 60.7665 57.4078 60.0687 56.8239 59.2222" stroke="white" stroke-width="3" stroke-linecap="round" stroke-linejoin="round"/>
</svg>
