<svg width="69" height="62" viewBox="0 0 69 62" fill="none" xmlns="http://www.w3.org/2000/svg">
<path d="M10.5669 11.2924H27.644C29.0765 11.2924 30.2263 10.727 30.2263 10.039C30.2263 9.35101 29.0765 8.77612 27.644 8.77612H10.5669C9.1344 8.77612 7.98462 9.34159 7.98462 10.039C7.98462 10.7364 9.1344 11.2924 10.5669 11.2924Z" fill="white" stroke="white" stroke-width="0.3"/>
<path d="M8.88932 17.2489H18.3138C18.8133 17.2489 19.2562 16.6834 19.2562 15.986C19.2562 15.2886 18.7756 14.7231 18.2761 14.7231H8.85162C8.35213 14.7231 7.90918 15.2886 7.90918 15.9766C7.90918 16.6646 8.38983 17.2489 8.88932 17.2489Z" fill="white" stroke="white" stroke-width="0.3"/>
<path d="M7.98462 22.8279C7.98462 23.5159 8.92706 24.0814 10.0957 24.0814H34.0903C35.2495 24.0814 36.2014 23.5159 36.2014 22.8279C36.2014 22.14 35.2589 21.5651 34.0903 21.5651H10.0957C8.92706 21.5651 7.98462 22.1305 7.98462 22.8279Z" fill="white" stroke="white" stroke-width="0.3"/>
<path d="M8.73857 32.7236H25.8911C26.3057 32.7236 26.645 32.1581 26.645 31.4607C26.645 30.7633 26.3057 30.2073 25.8911 30.2073H8.73857C8.3239 30.2073 7.98462 30.7727 7.98462 31.4607C7.98462 32.1487 8.3239 32.7236 8.73857 32.7236Z" fill="white" stroke="white" stroke-width="0.3"/>
<path d="M8.51239 38.6704H20.4437C20.7359 38.6704 20.9715 38.1143 20.9715 37.4169C20.9715 36.7195 20.7359 36.1541 20.4437 36.1541H8.51239C8.22023 36.1541 7.98462 36.7195 7.98462 37.4169C7.98462 38.1143 8.22023 38.6704 8.51239 38.6704Z" fill="white" stroke="white" stroke-width="0.3"/>
<path d="M8.47469 44.4287H19.5861C19.8594 44.4287 20.0762 43.8632 20.0762 43.1658C20.0762 42.4684 19.8594 41.9124 19.5861 41.9124H8.47469C8.20138 41.9124 7.98462 42.4778 7.98462 43.1658C7.98462 43.8538 8.20138 44.4287 8.47469 44.4287Z" fill="white" stroke="white" stroke-width="0.3"/>
<path d="M45.3524 52.4208V57.133C45.3524 58.0078 45.0049 58.8468 44.3863 59.4654C43.7677 60.084 42.9287 60.4315 42.0539 60.4315H5.29855C4.42372 60.4315 3.58472 60.084 2.96612 59.4654C2.34753 58.8468 2 58.0078 2 57.133V5.29855C2 4.42372 2.34753 3.58472 2.96612 2.96612C3.58472 2.34753 4.42372 2 5.29855 2H42.0539C42.9287 2 43.7677 2.34753 44.3863 2.96612C45.0049 3.58472 45.3524 4.42372 45.3524 5.29855V18.0498" stroke="white" stroke-width="3" stroke-linejoin="round"/>
<path d="M52.8167 19.1052L61.6756 27.9925M65.615 15.2224C66.1955 15.8026 66.6566 16.491 66.9722 17.2486C67.447 18.391 67.5715 19.6487 67.3298 20.862C67.0882 22.0752 66.4913 23.1893 65.615 24.0625L41.1869 48.3964L30.1038 50.6111L32.3185 39.5469L56.7184 15.2224C57.3004 14.6396 57.9917 14.1773 58.7525 13.8619C59.5134 13.5465 60.3289 13.3842 61.1526 13.3842C61.9762 13.3842 62.7918 13.5465 63.5526 13.8619C64.3135 14.1773 65.0047 14.6396 65.5868 15.2224H65.615Z" stroke="white" stroke-width="3" stroke-linecap="round" stroke-linejoin="round"/>
</svg>
