<svg width="73" height="73" viewBox="0 0 73 73" fill="none" xmlns="http://www.w3.org/2000/svg">
<path d="M61.5946 60.4841L55.1228 47.5404L48.6509 60.4841" stroke="white" stroke-width="3" stroke-linecap="round" stroke-linejoin="round"/>
<path d="M49.7626 58.1757H60.4735" stroke="white" stroke-width="3" stroke-linecap="round" stroke-linejoin="round"/>
<path d="M64.2161 67.6461C61.4091 69.6866 57.9967 70.7224 54.5291 70.5865C51.0615 70.4507 47.7407 69.151 45.102 66.8972C42.4633 64.6433 40.6604 61.5665 39.984 58.1628C39.3076 54.7591 39.7971 51.2268 41.3736 48.1353C42.9501 45.0438 45.5217 42.5732 48.6739 41.1218C51.8261 39.6705 55.3752 39.3229 58.749 40.1351C62.1229 40.9473 65.125 42.872 67.2713 45.5989C69.4177 48.3258 70.5832 51.696 70.5801 55.1662" stroke="white" stroke-width="3" stroke-linecap="round" stroke-linejoin="round"/>
<path d="M37.401 26.7333C37.5736 34.1004 34.0249 37.6599 26.6146 37.5197H12.7109C5.55952 37.703 2 34.1435 2 26.7333V12.7864C2 5.60266 5.55952 2 12.7864 2H26.6901C34.0572 2 37.6168 5.55952 37.4765 12.7864" stroke="white" stroke-width="3" stroke-linecap="round" stroke-linejoin="round"/>
<path d="M26.9383 15.774H12.4953" stroke="white" stroke-width="3" stroke-linecap="round" stroke-linejoin="round"/>
<path d="M19.6789 13.3689V15.7851" stroke="white" stroke-width="3" stroke-linecap="round" stroke-linejoin="round"/>
<path d="M23.314 15.7417C23.366 18.6743 22.2529 21.5078 20.2187 23.6209C18.1845 25.7339 15.3953 26.954 12.4629 27.0135" stroke="white" stroke-width="3" stroke-linecap="round" stroke-linejoin="round"/>
<path d="M26.938 27.0138C25.6355 26.977 24.3603 26.6324 23.2167 26.0081C22.0731 25.3838 21.0935 24.4975 20.3583 23.4219" stroke="white" stroke-width="3" stroke-linecap="round" stroke-linejoin="round"/>
<path d="M15.2568 48.3278C15.2554 50.2829 15.6394 52.2192 16.387 54.0258C17.1345 55.8324 18.2309 57.4739 19.6134 58.8564C20.9959 60.2389 22.6374 61.3353 24.444 62.0828C26.2506 62.8304 28.1869 63.2144 30.142 63.213L27.9092 59.4917" stroke="white" stroke-width="3" stroke-linecap="round" stroke-linejoin="round"/>
</svg>
