<svg width="70" height="70" viewBox="0 0 70 70" fill="none" xmlns="http://www.w3.org/2000/svg">
<path d="M58.2687 57.0173L51.2101 42.9331L44.1514 57.0173" stroke="white" stroke-width="3" stroke-linecap="round" stroke-linejoin="round"/>
<path d="M45.4398 54.5105H57.0502" stroke="white" stroke-width="3" stroke-linecap="round" stroke-linejoin="round"/>
<path d="M61.1063 64.7692C58.3356 66.7812 54.9383 68.0017 51.2441 68.0017C42.0085 68.0017 34.4881 60.5139 34.4881 51.2454C34.4881 42.0098 41.9755 34.4897 51.2441 34.4897C60.4796 34.4897 68 41.9768 68 51.2454" stroke="white" stroke-width="3" stroke-linecap="round" stroke-linejoin="round"/>
<path d="M34.8192 24.891C34.9842 31.7188 31.6858 35.0172 24.858 34.8523H11.9282C5.29838 35.0172 2 31.7188 2 24.891V11.9613C2 5.29848 5.29842 2 11.9612 2H24.891C31.7187 2 35.0172 5.29848 34.8522 11.9613" stroke="white" stroke-width="3" stroke-linecap="round" stroke-linejoin="round"/>
<path d="M25.1193 14.7314H11.7278" stroke="white" stroke-width="3" stroke-linecap="round" stroke-linejoin="round"/>
<path d="M18.389 12.4888V14.7317" stroke="white" stroke-width="3" stroke-linecap="round" stroke-linejoin="round"/>
<path d="M21.7557 14.6985C21.7557 20.4707 17.2369 25.1544 11.6955 25.1544" stroke="white" stroke-width="3" stroke-linecap="round" stroke-linejoin="round"/>
<path d="M25.1224 25.1549C22.7145 25.1549 20.5376 23.8685 19.0203 21.8235" stroke="white" stroke-width="3" stroke-linecap="round" stroke-linejoin="round"/>
<path d="M2 44.9125C2 57.6773 12.324 68.0014 25.0889 68.0014L21.6256 62.2292" stroke="white" stroke-width="3" stroke-linecap="round" stroke-linejoin="round"/>
<path d="M67.9683 25.1219C67.9683 12.357 57.6443 2.03296 44.8794 2.03296L48.3428 7.80519" stroke="white" stroke-width="3" stroke-linecap="round" stroke-linejoin="round"/>
</svg>
