<svg width="85" height="57" viewBox="0 0 85 57" fill="none" xmlns="http://www.w3.org/2000/svg">
<line x1="14.5" y1="44.5" x2="14.5" y2="26.5" stroke="white" stroke-width="3" stroke-linecap="round"/>
<path d="M70.2008 41.4998V50.8251C70.2013 51.3297 70.1019 51.8294 69.9085 52.2957C69.7152 52.7619 69.4315 53.1856 69.0738 53.5423C68.7161 53.8991 68.2914 54.1821 67.824 54.375C67.3565 54.5679 66.8555 54.6669 66.3497 54.6665H5.99997C4.97859 54.6665 3.99905 54.2618 3.27683 53.5414C2.55461 52.821 2.14882 52.2957 2.14886 50.8251L2.1489 19.3414C2.14847 18.8368 2.24778 18.3371 2.44116 17.8708C2.63454 17.4046 2.9182 16.9809 3.27589 16.6241C3.63359 16.2674 4.0583 15.9844 4.52573 15.7915C4.99317 15.5986 5.49414 15.4996 6 15.5H49.6847M67.904 8.06965L77.3157 17.4575M81.4506 3.9452C82.6984 5.19024 83.3993 6.87864 83.3993 8.63911C83.3993 10.3996 82.6984 12.088 81.4506 13.333L55.5653 39.1529L43.8008 41.4998L46.1537 29.765L72.0389 3.9452C72.6568 3.32852 73.3904 2.83932 74.1978 2.50556C75.0052 2.17179 75.8707 2 76.7448 2C77.6188 2 78.4843 2.17179 79.2917 2.50556C80.0992 2.83932 80.8328 3.32852 81.4506 3.9452Z" stroke="white" stroke-width="3" stroke-linecap="round" stroke-linejoin="round"/>
</svg>
