<svg width="76" height="50" viewBox="0 0 76 50" fill="none" xmlns="http://www.w3.org/2000/svg">
<path d="M15.7005 0.408475C15.5751 0.279002 15.4261 0.176273 15.2621 0.106178C15.098 0.0360823 14.9222 0 14.7445 0C14.5669 0 14.3911 0.0360823 14.227 0.106178C14.063 0.176273 13.914 0.279002 13.7886 0.408475L6.6272 7.73552L4.07436 5.17551C3.94898 5.04604 3.80001 4.94331 3.63597 4.87321C3.47193 4.80312 3.29607 4.76704 3.11845 4.76704C2.94084 4.76704 2.76497 4.80312 2.60093 4.87321C2.43689 4.94331 2.28792 5.04604 2.16254 5.17551L0.396923 6.99483C0.271112 7.12386 0.171288 7.27717 0.103175 7.44598C0.0350618 7.61479 0 7.79578 0 7.97856C0 8.16135 0.0350618 8.34233 0.103175 8.51114C0.171288 8.67995 0.271112 8.83327 0.396923 8.96229L5.74889 14.448C6.01603 14.7094 6.37052 14.8551 6.73909 14.8551C7.10767 14.8551 7.46216 14.7094 7.7293 14.448L9.48255 12.6403L17.6022 4.28553C17.8551 4.02497 17.9981 3.67227 18 3.30394C18.0019 2.93561 17.8626 2.58136 17.6123 2.31807L15.7005 0.408475ZM15.7005 18.832C15.5751 18.7025 15.4261 18.5998 15.2621 18.5297C15.098 18.4596 14.9222 18.4235 14.7445 18.4235C14.5669 18.4235 14.3911 18.4596 14.227 18.5297C14.063 18.5998 13.914 18.7025 13.7886 18.832L6.6272 26.2065L4.07436 23.6488C3.94898 23.5193 3.80001 23.4166 3.63597 23.3465C3.47193 23.2764 3.29607 23.2403 3.11845 23.2403C2.94084 23.2403 2.76497 23.2764 2.60093 23.3465C2.43689 23.4166 2.28792 23.5193 2.16254 23.6488L0.396923 25.4646C0.271112 25.5937 0.171288 25.747 0.103175 25.9158C0.0350618 26.0846 0 26.2656 0 26.4484C0 26.6312 0.0350618 26.8121 0.103175 26.9809C0.171288 27.1498 0.271112 27.3031 0.396923 27.4321L5.73539 32.9294C6.00235 33.1907 6.35665 33.3363 6.72504 33.3363C7.09343 33.3363 7.44773 33.1907 7.71468 32.9294L9.4803 31.1136L17.5999 22.7553C17.8519 22.4966 17.9944 22.1459 17.9963 21.7795C17.9982 21.4132 17.8593 21.0609 17.61 20.7994L15.7005 18.832ZM7.19737 38.8896C4.21831 38.8896 1.73295 41.3779 1.73295 44.4448C1.73295 47.5117 4.22056 50 7.19737 50C8.62903 50 10.002 49.4147 11.0144 48.3729C12.0267 47.3311 12.5954 45.9181 12.5954 44.4448C12.5954 42.9715 12.0267 41.5585 11.0144 40.5167C10.002 39.4749 8.62903 38.8896 7.19737 38.8896Z" fill="white"/>
<path d="M28 7H74" stroke="white" stroke-width="3" stroke-linecap="round"/>
<path d="M28 26H74" stroke="white" stroke-width="3" stroke-linecap="round"/>
<path d="M28 45H74" stroke="white" stroke-width="3" stroke-linecap="round"/>
</svg>
