<?xml version="1.0" standalone="no"?>
<!DOCTYPE svg PUBLIC "-//W3C//DTD SVG 20010904//EN"
 "http://www.w3.org/TR/2001/REC-SVG-20010904/DTD/svg10.dtd">
<svg version="1.0" xmlns="http://www.w3.org/2000/svg"
 width="117.000000pt" height="117.000000pt" viewBox="0 0 117.000000 117.000000"
 preserveAspectRatio="xMidYMid meet">
<metadata>
Created by potrace 1.14, written by Peter Selinger 2001-2017
</metadata>
<g transform="translate(0.000000,117.000000) scale(0.100000,-0.100000)"
fill="#000000" stroke="none">
<path d="M877 1139 c-28 -24 -32 -33 -32 -78 0 -66 31 -101 97 -108 39 -5 49
-2 77 23 57 52 51 136 -11 174 -43 26 -91 22 -131 -11z"/>
<path d="M530 893 c-28 -11 -55 -54 -247 -401 -124 -222 -193 -357 -193 -375
0 -41 29 -84 66 -99 47 -19 414 -17 450 2 53 29 70 109 34 160 -27 38 -59 47
-163 46 -48 -1 -87 0 -87 1 0 9 182 328 186 326 6 -2 77 -124 114 -196 12 -23
27 -51 33 -62 7 -11 32 -56 56 -100 94 -171 102 -180 176 -190 22 -3 84 40 95
64 7 18 10 146 8 400 l-3 373 -34 30 c-30 27 -39 30 -79 25 -30 -3 -53 -13
-71 -31 -25 -26 -26 -30 -29 -173 l-4 -146 -66 119 c-37 66 -76 136 -87 157
-32 61 -99 91 -155 70z"/>
</g>
</svg>
