<svg width="1613" height="125" viewBox="0 0 1613 125" fill="none" xmlns="http://www.w3.org/2000/svg">
<path fill-rule="evenodd" clip-rule="evenodd" d="M219 0H0V95C0 98.9397 0.775973 102.841 2.28361 106.48C3.79125 110.12 6.00104 113.427 8.7868 116.213C14.4129 121.839 22.0435 125 30 125H189C192.94 125 196.841 124.224 200.48 122.716C204.12 121.209 207.427 118.999 210.213 116.213C212.999 113.427 215.209 110.12 216.716 106.48C218.224 102.841 219 98.9397 219 95V45.53C220.828 39.3198 224.615 33.8674 229.797 29.987C234.979 26.1066 241.276 24.0064 247.75 24H1612.25V0H219Z" fill="white"/>
</svg>
