<svg width="141" height="69" viewBox="0 0 141 69" fill="none" xmlns="http://www.w3.org/2000/svg">
<g clip-path="url(#clip0_252_2957)">
<path d="M33.8368 13.4863L0.302835 13.5065C0.131229 13.5065 0 13.6377 0 13.8094V21.4711C0 21.6326 0.131229 21.7739 0.302835 21.7739H11.3159C11.3159 24.6004 11.3159 37.5213 11.3159 46.8587C11.3159 57.3974 22.7934 57.7103 22.7934 57.7103V21.7739H33.8267C33.9882 21.7739 34.1295 21.6427 34.1295 21.4711V13.8094C34.1396 13.6277 33.9983 13.4863 33.8368 13.4863Z" fill="#12245F"/>
<path d="M109.172 29.5669C109.172 21.35 108.99 19.856 105.134 16.3734C101.258 12.8706 89.0132 13.4965 89.0132 13.4965L81.3414 13.5066C81.1698 13.5066 81.0386 13.6378 81.0386 13.8094V21.4712C81.0386 21.6327 81.1698 21.774 81.3414 21.774L92.1021 21.7639C92.1627 21.7639 92.2031 21.774 92.2637 21.774C98.2598 21.774 97.6238 26.478 97.6238 26.478V29.577V42.0942V45.1932C97.6238 45.1932 98.1891 49.4935 92.9703 49.8569V26.2862C92.9703 26.1146 92.8391 25.9834 92.6674 25.9834L81.3414 26.0036C81.1698 26.0036 81.0386 26.1348 81.0386 26.3064V57.9224C81.0386 58.0839 81.1698 58.2252 81.3414 58.2252L89.9823 58.2151C90.6082 58.2252 91.4864 58.2353 92.5362 58.2151H92.6674H92.6775C96.6043 58.1142 102.621 57.5792 105.134 55.3079C108.99 51.8253 109.172 50.3313 109.172 42.1144C109.172 42.1144 109.172 42.0538 109.172 41.963C109.172 41.1857 109.172 37.1883 109.172 29.7285C109.172 29.6174 109.172 29.5669 109.172 29.5669Z" fill="#12245F"/>
<path d="M129.391 21.7637C129.452 21.7637 129.502 21.7536 129.553 21.7536L140.313 21.7637C140.485 21.7637 140.616 21.6324 140.616 21.4608V13.7991C140.616 13.6275 140.485 13.4963 140.313 13.4963L132.642 13.4862C132.642 13.4862 120.407 12.8704 116.521 16.3631C112.665 19.8457 112.483 21.3397 112.483 29.5566C112.483 29.5566 112.483 29.6172 112.483 29.708C112.483 37.1578 112.483 41.1552 112.483 41.9426C112.483 42.0334 112.483 42.094 112.483 42.094C112.483 50.3109 112.665 51.8049 116.521 55.2875C119.034 57.5588 125.051 58.0938 128.977 58.1947H128.987H129.119C130.168 58.2149 131.047 58.2149 131.673 58.1947L140.313 58.2048C140.485 58.2048 140.616 58.0736 140.616 57.902V50.2403C140.616 50.0687 140.485 49.9374 140.313 49.9374L129.876 49.9273C129.714 49.9172 129.573 49.887 129.391 49.887C123.395 49.887 124.031 45.1829 124.031 45.1829V42.094V34.2405L140.313 34.2607C140.485 34.2607 140.616 34.1294 140.616 33.9578V26.2961C140.616 26.1245 140.485 25.9933 140.313 25.9933L124.011 25.9832C124.041 24.792 124.576 21.7637 129.391 21.7637Z" fill="#12245F"/>
<path d="M67.5119 55.4486C69.0362 58.0934 72.4078 59.0019 75.0525 57.4776C77.6973 55.9634 78.6058 52.5818 77.0815 49.937L58.3865 16.2214C56.8622 13.5766 53.4907 12.6681 50.8459 14.1924C48.2012 15.7066 47.2926 19.0882 48.8169 21.7229L67.5119 55.4486Z" fill="#AC5D4A"/>
<path d="M77.8183 52.6937C77.8183 55.7422 75.3451 58.2154 72.2966 58.2154C69.2481 58.2154 66.7749 55.7422 66.7749 52.6937V18.968C66.7749 15.9194 69.2481 13.4463 72.2966 13.4463C75.3451 13.4463 77.8183 15.9194 77.8183 18.968V52.6937Z" fill="#FF772D"/>
<path d="M39.6106 55.449C38.0864 58.0937 34.7148 59.0022 32.07 57.478C29.4253 55.9638 28.5168 52.5821 30.041 49.9374L48.7462 16.2116C50.2704 13.5669 53.642 12.6584 56.2867 14.1826C58.9315 15.6968 59.84 19.0785 58.3157 21.7131L39.6106 55.449Z" fill="#FF772D"/>
<path d="M52.3903 47.1719C55.4389 47.1719 57.912 49.645 57.912 52.6936C57.912 55.7421 55.4389 58.2153 52.3903 58.2153H34.8259C31.7774 58.2153 29.3042 55.7421 29.3042 52.6936C29.3042 49.645 31.7774 47.1719 34.8259 47.1719H52.3903Z" fill="#FF772D"/>
<path d="M77.8183 5.52169C77.8183 8.57023 75.3451 11.0434 72.2966 11.0434C69.2481 11.0434 66.7749 8.57023 66.7749 5.52169C66.785 2.47315 69.2481 0 72.2966 0C75.3451 0 77.8183 2.47315 77.8183 5.52169Z" fill="#FF772D"/>
<path d="M2.76575 68.229H1.91781V64.5142H0.423828V63.8379H4.23955V64.5142H2.76575V68.229Z" fill="#9CA0B2"/>
<path d="M8.81249 65.1603C8.81249 65.4631 8.72164 65.7256 8.53994 65.9375C8.35824 66.1495 8.08569 66.311 7.71219 66.412V66.4221L9.08504 68.229H8.07559L6.82387 66.5331H6.24849V68.229H5.41064V63.8379H6.81378C7.04595 63.8379 7.25794 63.848 7.45983 63.8783C7.66172 63.8985 7.83332 63.9388 7.97465 63.9893C8.2472 64.0903 8.44909 64.2316 8.60051 64.4234C8.74183 64.6253 8.81249 64.8675 8.81249 65.1603ZM6.66236 65.8568C6.85416 65.8568 7.01567 65.8467 7.15699 65.8366C7.28822 65.8164 7.39926 65.7962 7.50021 65.7659C7.66172 65.6953 7.78285 65.6145 7.85351 65.5136C7.92418 65.4025 7.95446 65.2814 7.95446 65.1502C7.95446 65.029 7.92418 64.9281 7.8737 64.8372C7.82323 64.7464 7.73238 64.6757 7.61125 64.6253C7.53049 64.5849 7.42954 64.5647 7.30841 64.5445C7.18728 64.5243 7.03586 64.5243 6.85416 64.5243H6.24849V65.8669H6.66236V65.8568Z" fill="#9CA0B2"/>
<path d="M12.2547 68.3098C12.0124 68.3098 11.7904 68.2896 11.5986 68.2391C11.4068 68.1987 11.2352 68.1281 11.0938 68.0473C10.9525 67.9665 10.8213 67.8555 10.7203 67.7344C10.6194 67.6132 10.5386 67.4719 10.468 67.3205C10.4175 67.1994 10.3771 67.058 10.3569 66.9167C10.3368 66.7653 10.3267 66.6038 10.3267 66.4221V63.8379H11.1746V66.3514C11.1746 66.6644 11.215 66.9066 11.2957 67.0782C11.3866 67.27 11.5077 67.4113 11.6793 67.5022C11.8509 67.593 12.0427 67.6334 12.2749 67.6334C12.497 67.6334 12.6989 67.593 12.8705 67.5022C13.0421 67.4113 13.1632 67.2801 13.2541 67.0782C13.3348 66.9066 13.3752 66.6644 13.3752 66.3514V63.8379H14.2231V66.4221C14.2231 66.6038 14.213 66.7754 14.1929 66.9167C14.1727 67.0681 14.1323 67.1994 14.0818 67.3205C14.0212 67.4719 13.9405 67.6132 13.8295 67.7344C13.7285 67.8555 13.5973 67.9564 13.4459 68.0473C13.2944 68.1281 13.1228 68.1987 12.931 68.2391C12.709 68.2896 12.4869 68.3098 12.2547 68.3098Z" fill="#9CA0B2"/>
<path d="M18.049 66.9669C18.049 66.8558 18.0187 66.765 17.9581 66.6943C17.8976 66.6237 17.8269 66.5732 17.726 66.5227C17.625 66.4824 17.514 66.442 17.3928 66.4117C17.2717 66.3814 17.1405 66.3612 17.0093 66.3309C16.8276 66.2906 16.6559 66.2502 16.4944 66.1997C16.3329 66.1492 16.1916 66.0786 16.0604 65.9877C15.9392 65.8969 15.8383 65.7858 15.7676 65.6445C15.697 65.5032 15.6566 65.3316 15.6566 65.1196C15.6566 64.8874 15.697 64.6855 15.7777 64.5139C15.8686 64.3423 15.9796 64.201 16.1209 64.09C16.2623 63.9789 16.4339 63.8881 16.6358 63.8376C16.8376 63.7871 17.0496 63.7568 17.302 63.7568C17.5443 63.7568 17.7966 63.777 18.0389 63.8275C18.2913 63.878 18.5032 63.9284 18.6748 64.0092V64.6956C18.4326 64.6048 18.2105 64.5442 17.9884 64.5038C17.7663 64.4635 17.5644 64.4433 17.3727 64.4433C17.09 64.4433 16.878 64.4937 16.7266 64.5846C16.5752 64.6855 16.5045 64.8269 16.5045 65.0187C16.5045 65.1297 16.5247 65.2205 16.5752 65.2912C16.6257 65.3619 16.6963 65.4224 16.7771 65.4729C16.8578 65.5234 16.9588 65.5537 17.0698 65.5839C17.1809 65.6142 17.2919 65.6344 17.4231 65.6647C17.6149 65.7051 17.8067 65.7455 17.9783 65.806C18.16 65.8565 18.3114 65.9272 18.4528 66.018C18.5941 66.1089 18.695 66.23 18.7758 66.3814C18.8565 66.5328 18.8969 66.7145 18.8969 66.9467C18.8969 67.1789 18.8465 67.3909 18.7556 67.5625C18.6648 67.7341 18.5335 67.8754 18.3619 67.9864C18.1903 68.0975 17.9884 68.1883 17.7462 68.2388C17.5039 68.2893 17.2414 68.3196 16.9588 68.3196C16.7064 68.3196 16.4641 68.2994 16.2219 68.2489C15.9796 68.1984 15.7777 68.1379 15.6162 68.047V67.3707C15.8484 67.4615 16.0604 67.5322 16.2824 67.5726C16.4944 67.6129 16.7165 67.6331 16.9487 67.6331C17.0799 67.6331 17.2111 67.623 17.3424 67.6028C17.4736 67.5827 17.5846 67.5423 17.6856 67.4918C17.7865 67.4413 17.8673 67.3707 17.9279 67.2899C18.0187 67.1991 18.049 67.0981 18.049 66.9669Z" fill="#9CA0B2"/>
<path d="M22.2483 68.229H21.4004V64.5142H19.9165V63.8379H23.7322V64.5142H22.2483V68.229Z" fill="#9CA0B2"/>
<path d="M27.5375 64.9988C27.4466 65.4126 27.3457 65.8265 27.2246 66.2606L26.7097 68.229H25.8719L24.4082 63.8379H25.3066L25.8618 65.5842C26.0334 66.1293 26.1646 66.6341 26.2656 67.0681H26.2858C26.3867 66.5937 26.4978 66.0991 26.6391 65.6044L27.1135 63.8379H27.9817L28.4561 65.6145C28.5873 66.1092 28.7085 66.6038 28.8094 67.0782H28.8296C28.9507 66.5533 29.0921 66.0587 29.2334 65.5943L29.7886 63.848H30.687L29.2233 68.2391H28.3854L27.8706 66.2707C27.7495 65.8265 27.6485 65.4025 27.5577 65.0089H27.5375V64.9988Z" fill="#9CA0B2"/>
<path d="M36.0977 66.0385C36.0977 66.3716 36.0472 66.6745 35.9463 66.9571C35.8453 67.2398 35.704 67.4719 35.5122 67.6738C35.3204 67.8757 35.0882 68.0372 34.8056 68.1483C34.5229 68.2593 34.21 68.3199 33.8567 68.3199C33.5034 68.3199 33.1804 68.2694 32.9078 68.1483C32.6252 68.0372 32.393 67.8757 32.2012 67.6738C32.0094 67.4719 31.8681 67.2297 31.7671 66.9571C31.6662 66.6745 31.6157 66.3716 31.6157 66.0385C31.6157 65.7054 31.6662 65.3925 31.7671 65.1199C31.8681 64.8373 32.0094 64.6051 32.2012 64.4032C32.393 64.2013 32.6252 64.0499 32.9078 63.9389C33.1905 63.8278 33.5034 63.7773 33.8567 63.7773C34.21 63.7773 34.533 63.8278 34.8056 63.9389C35.0882 64.0499 35.3204 64.2114 35.5122 64.4032C35.704 64.6051 35.8453 64.8474 35.9463 65.1199C36.0472 65.3925 36.0977 65.6953 36.0977 66.0385ZM35.2296 66.0385C35.2296 65.7761 35.1993 65.5338 35.1286 65.342C35.0579 65.1401 34.9671 64.9786 34.846 64.8373C34.7248 64.706 34.5835 64.6051 34.4119 64.5344C34.2403 64.4739 34.0586 64.4335 33.8567 64.4335C33.6548 64.4335 33.4731 64.4638 33.3015 64.5344C33.1299 64.6051 32.9886 64.6959 32.8674 64.8373C32.7463 64.9685 32.6454 65.1401 32.5848 65.342C32.5141 65.5439 32.4839 65.7761 32.4839 66.0385C32.4839 66.301 32.5141 66.5331 32.5848 66.735C32.6555 66.9369 32.7463 67.0984 32.8674 67.2297C32.9886 67.3609 33.1299 67.4618 33.3015 67.5224C33.4731 67.5931 33.6548 67.6233 33.8567 67.6233C34.0586 67.6233 34.2403 67.5931 34.4119 67.5224C34.5835 67.4517 34.7248 67.3609 34.846 67.2297C34.9671 67.0984 35.068 66.9268 35.1286 66.735C35.1993 66.5331 35.2296 66.301 35.2296 66.0385Z" fill="#9CA0B2"/>
<path d="M40.9131 65.1603C40.9131 65.4631 40.8222 65.7256 40.6506 65.9375C40.4689 66.1495 40.1964 66.311 39.8229 66.412V66.4221L41.1957 68.229H40.1863L38.9346 66.5331H38.3592V68.229H37.5112V63.8379H38.9144C39.1465 63.8379 39.3585 63.848 39.5604 63.8783C39.7623 63.8985 39.9339 63.9388 40.0752 63.9893C40.3478 64.0903 40.5497 64.2316 40.7011 64.4234C40.8424 64.6253 40.9131 64.8675 40.9131 65.1603ZM38.763 65.8568C38.9547 65.8568 39.1163 65.8467 39.2576 65.8366C39.3888 65.8164 39.5099 65.7962 39.6008 65.7659C39.7724 65.7054 39.8935 65.6246 39.9541 65.5136C40.0248 65.4025 40.055 65.2814 40.055 65.1502C40.055 65.029 40.0248 64.9281 39.9743 64.8372C39.9238 64.7464 39.833 64.6757 39.7118 64.6253C39.6311 64.5849 39.5301 64.5647 39.409 64.5445C39.2879 64.5243 39.1364 64.5243 38.9547 64.5243H38.3491V65.8669H38.763V65.8568Z" fill="#9CA0B2"/>
<path d="M44.325 68.229H43.4771V64.5142H41.9932V63.8379H45.8089V64.5142H44.325V68.229Z" fill="#9CA0B2"/>
<path d="M47.8177 65.6448H49.9577V63.8379H50.7955V68.229H49.9577V66.3211H47.8177V68.229H46.9697V63.8379H47.8177V65.6448Z" fill="#9CA0B2"/>
<path d="M54.086 65.7256L55.3074 63.8379H56.2462L54.51 66.4625V68.229H53.6721V66.4625L51.9258 63.8379H52.8646L54.086 65.7256Z" fill="#9CA0B2"/>
<path d="M63.9385 67.1085H62.2023L61.748 68.229H60.8496L62.6767 63.8379H63.4439L65.271 68.229H64.3827L63.9385 67.1085ZM63.0603 64.8978C62.8988 65.3622 62.7575 65.7357 62.6262 66.0486L62.4647 66.4423H63.6559L63.4944 66.0486C63.3732 65.7357 63.2218 65.3521 63.0603 64.8978Z" fill="#9CA0B2"/>
<path d="M66.4419 68.229V63.8379H67.2797V68.229H66.4419Z" fill="#9CA0B2"/>
<path d="M72.8218 68.229V63.8379H74.0432C74.1543 63.8379 74.2552 63.8379 74.3763 63.848C74.4874 63.8581 74.5984 63.8682 74.6994 63.8783C74.8003 63.8884 74.9113 63.9086 75.0022 63.9287C75.1031 63.9489 75.194 63.9691 75.2747 63.9994C75.517 64.0701 75.7391 64.171 75.9208 64.3022C76.1126 64.4335 76.264 64.5849 76.3952 64.7565C76.5265 64.9281 76.6173 65.1199 76.688 65.3319C76.7485 65.5439 76.7889 65.776 76.7889 66.0284C76.7889 66.2606 76.7586 66.4826 76.7082 66.6946C76.6577 66.9066 76.5668 67.0883 76.4558 67.2599C76.3448 67.4315 76.2034 67.583 76.0318 67.7142C75.8602 67.8454 75.6583 67.9464 75.4262 68.0372C75.2344 68.1079 75.0123 68.1583 74.7599 68.1987C74.5076 68.2391 74.235 68.2492 73.9221 68.2492H72.8218V68.229ZM74.0129 67.5527C74.5076 67.5527 74.8912 67.4921 75.1738 67.3609C75.4161 67.2397 75.6079 67.0782 75.729 66.8561C75.8602 66.6341 75.9208 66.3514 75.9208 66.0082C75.9208 65.8265 75.9006 65.665 75.8602 65.5237C75.8198 65.3824 75.7593 65.2511 75.6785 65.1401C75.5978 65.029 75.5069 64.9281 75.3959 64.8473C75.2848 64.7666 75.1637 64.706 75.0224 64.6454C74.8912 64.595 74.7498 64.5647 74.5883 64.5445C74.4268 64.5243 74.2451 64.5142 74.0432 64.5142H73.6697V67.5628H74.0129V67.5527Z" fill="#9CA0B2"/>
<path d="M78.1816 68.229V63.8379H79.0296V68.229H78.1816Z" fill="#9CA0B2"/>
<path d="M83.2793 67.1085H81.5431L81.0888 68.229H80.1904L82.0175 63.8379H82.7847L84.6118 68.229H83.7235L83.2793 67.1085ZM82.4011 64.8978C82.2396 65.3622 82.0983 65.7357 81.9671 66.0486L81.8055 66.4423H82.9967L82.8352 66.0486C82.7141 65.7357 82.5626 65.3521 82.4011 64.8978Z" fill="#9CA0B2"/>
<path d="M86.6206 63.8379V67.5527H88.7808V68.229H85.7827V63.8379H86.6206Z" fill="#9CA0B2"/>
<path d="M94.3633 66.0385C94.3633 66.3716 94.3128 66.6745 94.2119 66.9571C94.1109 67.2398 93.9696 67.4719 93.7778 67.6738C93.586 67.8757 93.3539 68.0372 93.0712 68.1483C92.7886 68.2593 92.4756 68.3199 92.1223 68.3199C91.769 68.3199 91.446 68.2694 91.1734 68.1483C90.8908 68.0372 90.6586 67.8757 90.4668 67.6738C90.275 67.4719 90.1337 67.2297 90.0328 66.9571C89.9318 66.6745 89.8813 66.3716 89.8813 66.0385C89.8813 65.7054 89.9318 65.3925 90.0328 65.1199C90.1337 64.8373 90.275 64.6051 90.4668 64.4032C90.6586 64.2013 90.8908 64.0499 91.1734 63.9389C91.4561 63.8278 91.769 63.7773 92.1223 63.7773C92.4756 63.7773 92.7987 63.8278 93.0712 63.9389C93.3539 64.0499 93.586 64.2114 93.7778 64.4032C93.9696 64.6051 94.1109 64.8474 94.2119 65.1199C94.3128 65.3925 94.3633 65.6953 94.3633 66.0385ZM93.4952 66.0385C93.4952 65.7761 93.4649 65.5338 93.3942 65.342C93.3236 65.1401 93.2327 64.9786 93.1116 64.8373C92.9905 64.706 92.8491 64.6051 92.6775 64.5344C92.5059 64.4739 92.3242 64.4335 92.1324 64.4335C91.9305 64.4335 91.7488 64.4638 91.5772 64.5344C91.4056 64.6051 91.2643 64.6959 91.1432 64.8373C91.022 64.9685 90.9211 65.1401 90.8605 65.342C90.7899 65.5439 90.7596 65.7761 90.7596 66.0385C90.7596 66.301 90.7899 66.5331 90.8605 66.735C90.9312 66.9369 91.022 67.0984 91.1432 67.2297C91.2643 67.3609 91.4056 67.4618 91.5772 67.5224C91.7488 67.5931 91.9305 67.6233 92.1324 67.6233C92.3343 67.6233 92.516 67.5931 92.6775 67.5224C92.839 67.4517 92.9905 67.3609 93.1116 67.2297C93.2327 67.0984 93.3236 66.9268 93.3942 66.735C93.4548 66.5331 93.4952 66.301 93.4952 66.0385Z" fill="#9CA0B2"/>
<path d="M98.633 66.553H97.6034V65.8767H99.481V68.0874C99.4103 68.1076 99.3194 68.1378 99.2185 68.158C99.1075 68.1883 98.9964 68.2085 98.8652 68.2287C98.734 68.2489 98.5926 68.2691 98.4614 68.2792C98.3201 68.2893 98.1788 68.2994 98.0475 68.2994C97.6337 68.2994 97.2702 68.2489 96.9674 68.1378C96.6545 68.0369 96.4021 67.8855 96.2002 67.6937C95.9983 67.5019 95.8368 67.2697 95.7359 67.0073C95.6349 66.7448 95.5845 66.4521 95.5845 66.129C95.5845 65.907 95.6148 65.6849 95.6652 65.483C95.7157 65.271 95.7965 65.0893 95.9075 64.9076C96.0084 64.736 96.1397 64.5745 96.2911 64.4332C96.4425 64.2918 96.6141 64.1707 96.8059 64.0698C96.9977 63.9688 97.2097 63.8881 97.4318 63.8376C97.6639 63.7871 97.9062 63.7568 98.1687 63.7568C98.4008 63.7568 98.6229 63.777 98.8349 63.8073C99.0469 63.8376 99.2185 63.878 99.3497 63.9284V64.6048C99.168 64.5543 98.9863 64.5038 98.8046 64.4836C98.6229 64.4534 98.4412 64.4433 98.2494 64.4433C97.9971 64.4433 97.7649 64.4836 97.5428 64.5543C97.3308 64.625 97.139 64.7259 96.9775 64.8672C96.816 65.0086 96.6949 65.1802 96.604 65.382C96.5132 65.5839 96.4627 65.8161 96.4627 66.0887C96.4627 66.6035 96.604 66.9972 96.8867 67.2495C97.1693 67.512 97.5731 67.6432 98.0879 67.6432C98.1888 67.6432 98.2797 67.6331 98.3907 67.6331C98.4917 67.623 98.5825 67.6129 98.6633 67.5927V66.553H98.633Z" fill="#9CA0B2"/>
<path d="M115.249 67.5527H117.51V68.229H114.401V63.8379H117.389V64.5142H115.249V65.6448H117.086V66.3211H115.249V67.5527Z" fill="#9CA0B2"/>
<path d="M121.316 65.877C121.649 66.3211 121.911 66.7249 122.123 67.0681H122.143C122.113 66.5028 122.103 66.0789 122.103 65.8265V63.8379H122.951V68.229H122.063L120.559 66.2101C120.296 65.8568 120.024 65.453 119.741 64.9887H119.721C119.751 65.5237 119.761 65.9476 119.761 66.2404V68.229H118.923V63.8379H119.812L121.316 65.877Z" fill="#9CA0B2"/>
<path d="M127.413 66.553H126.383V65.8767H128.261V68.0874C128.19 68.1076 128.099 68.1378 127.998 68.158C127.887 68.1883 127.776 68.2085 127.645 68.2287C127.514 68.2489 127.372 68.2691 127.241 68.2792C127.1 68.2893 126.959 68.2994 126.827 68.2994C126.413 68.2994 126.05 68.2489 125.747 68.1378C125.434 68.0369 125.182 67.8855 124.98 67.6937C124.778 67.5019 124.617 67.2697 124.516 67.0073C124.415 66.7448 124.364 66.4521 124.364 66.129C124.364 65.907 124.395 65.6849 124.445 65.483C124.495 65.271 124.576 65.0893 124.687 64.9076C124.788 64.736 124.919 64.5745 125.071 64.4332C125.222 64.2918 125.394 64.1707 125.586 64.0698C125.777 63.9688 125.989 63.8881 126.212 63.8376C126.444 63.7871 126.686 63.7568 126.948 63.7568C127.181 63.7568 127.403 63.777 127.615 63.8073C127.827 63.8376 127.998 63.878 128.13 63.9284V64.6048C127.948 64.5543 127.766 64.5038 127.584 64.4836C127.403 64.4534 127.221 64.4433 127.029 64.4433C126.777 64.4433 126.545 64.4836 126.323 64.5543C126.101 64.625 125.919 64.7259 125.757 64.8672C125.596 65.0086 125.475 65.1802 125.384 65.382C125.293 65.5839 125.242 65.8161 125.242 66.0887C125.242 66.6035 125.384 66.9972 125.666 67.2495C125.949 67.512 126.353 67.6432 126.868 67.6432C126.969 67.6432 127.059 67.6331 127.171 67.6331C127.271 67.623 127.362 67.6129 127.443 67.5927V66.553H127.413Z" fill="#9CA0B2"/>
<path d="M129.795 68.229V63.8379H130.633V68.229H129.795Z" fill="#9CA0B2"/>
<path d="M134.651 65.877C134.984 66.3211 135.246 66.7249 135.458 67.0681H135.478C135.448 66.5028 135.438 66.0789 135.438 65.8265V63.8379H136.276V68.229H135.387L133.883 66.2101C133.621 65.8568 133.348 65.453 133.066 64.9887H133.046C133.076 65.5237 133.086 65.9476 133.086 66.2404V68.229H132.248V63.8379H133.136L134.651 65.877Z" fill="#9CA0B2"/>
<path d="M138.729 67.5527H140.99V68.229H137.881V63.8379H140.869V64.5142H138.729V65.6448H140.566V66.3211H138.729V67.5527Z" fill="#9CA0B2"/>
<path d="M102.792 68.3098C102.55 68.3098 102.338 68.2896 102.146 68.2391C101.954 68.1987 101.783 68.1281 101.641 68.0473C101.49 67.9665 101.369 67.8555 101.268 67.7344C101.167 67.6132 101.086 67.4719 101.015 67.3205C100.965 67.1994 100.924 67.058 100.904 66.9167C100.884 66.7653 100.874 66.6038 100.874 66.4221V63.8379H101.712V66.3514C101.712 66.6644 101.752 66.9066 101.833 67.0782C101.924 67.27 102.045 67.4113 102.217 67.5022C102.388 67.593 102.58 67.6334 102.812 67.6334C103.044 67.6334 103.236 67.593 103.408 67.5022C103.579 67.4113 103.7 67.2801 103.791 67.0782C103.872 66.9066 103.912 66.6644 103.912 66.3514V63.8379H104.75V66.4221C104.75 66.6038 104.74 66.7754 104.72 66.9167C104.7 67.0681 104.659 67.1994 104.609 67.3205C104.548 67.4719 104.468 67.6132 104.357 67.7344C104.256 67.8555 104.124 67.9564 103.973 68.0473C103.822 68.1281 103.65 68.1987 103.458 68.2391C103.246 68.2896 103.034 68.3098 102.792 68.3098Z" fill="#9CA0B2"/>
<path d="M107.143 67.5927H109.404V68.269H106.295V63.8779H109.283V64.5543H107.143V65.6848H108.98V66.3612H107.143V67.5927Z" fill="#9CA0B2"/>
</g>
<defs>
<clipPath id="clip0_252_2957">
<rect width="141" height="68.3095" fill="white"/>
</clipPath>
</defs>
</svg>
